{"title":"Criminal.Activities.2015.WEBRiP.XViD.AC3.5.1.ReLeNTLesS","uid":12806451,"size":1355724274,"categoryP":"video","categoryS":"movies","magnet":"?xt=urn:btih:4742bed162d4dd3aa2f20abd82d06a175856faef&amp;dn=Criminal.Activities.2015.WEBRiP.XViD.AC3.5.1.ReLeNTLesS&amp;tr=udp%3A%2F%2Ftracker.leechers-paradise.org%3A6969&amp;tr=udp%3A%2F%2Fzer0day.ch%3A1337&amp;tr=udp%3A%2F%2Fopen.demonii.com%3A1337&amp;tr=udp%3A%2F%2Ftracker.coppersurfer.tk%3A6969&amp;tr=udp%3A%2F%2Fexodus.desync.com%3A6969","seeders":0,"leechers":0,"uploader":"TvTeam","files":4,"time":1448128553,"description":"------------------------------------------------------------------------\r\n\r  https://www.torrenting.com\r\n\r\nSign up is OPEN - for time being. Come and have fun.\r\n\r\n------------------------------------------------------------------------P0STER\r\n[img]http://i.imgur.com/30utZW3.png[/img]\r\n\r\niMDB: http://www.imdb.com/title/tt3687310/\r\n\r\nGeneral\r\nComplete name               : Criminal.Activities.2015.WEBRiP.XViD.AC3.5.1.ReLeNTLesS.avi\r\nFormat                      : AVI\r\nFormat/Info                 : Audio Video Interleave\r\nFile size                   : 1.25 GiB\r\nDuration                    : 1h 33mn\r\nOverall bit rate            : 1 904 Kbps\r\n\r\nVideo\r\nID                          : 0\r\nFormat                      : MPEG-4 Visual\r\nFormat profile              : Advanced   \r\nFormat settings, BVOP       : 1\r\nFormat settings, QPel       : No\r\nFormat settings, GMC        : No warppoints\r\nFormat settings, Matrix     : Default (H.263)\r\nMuxing mode                 : Packed bitstream\r\nCodec ID                    : XVID\r\nCodec ID/Hint               : XviD\r\nDuration                    : 1h 33mn\r\nBit rate                    : 1 704 Kbps\r\nWidth                       : 720 pixels\r\nHeight                      : 304 pixels\r\nDisplay aspect ratio        : 2.35:1\r\nFrame rate                  : 23.976 fps\r\nColor space                 : YUV\r\nChroma subsampling          : 4:2:0\r\nBit depth                   : 8 bits\r\nScan type                   : Progressive\r\nCompression mode            : Lossy\r\nBits/(Pixel*Frame)          : 0.325\r\nStream size                 : 1.12 GiB (90%)\r\nWriting library             : XviD 1.2.1 (UTC 2008-12-04)\r\n\r\nAudio\r\nID                          : 1\r\nFormat                      : AC-3\r\nFormat/Info                 : Audio Coding 3\r\nMode extension              : CM (complete main)\r\nFormat settings, Endianness : Big\r\nCodec ID                    : 2000\r\nDuration                    : 1h 33mn\r\nBit rate mode               : Constant\r\nBit rate                    : 192 Kbps\r\nChannel(s)                  : 6 channels\r\nChannel positions           : Front: L C R, Side: L R, LFE\r\nSampling rate               : 48.0 KHz\r\nCompression mode            : Lossy\r\nStream size                 : 129 MiB (10%)\r\nAlignment                   : Aligned on interleaves\r\nInterleave, duration        : 64 ms (1.53 video frames)\r\nInterleave, preload duratio : 192 ms\r\nTitle                       : Criminal.Activities.2015.ReLeNTLesS.audio.5.1.English_new\r\nSample Included             : Yes\r\nSource                      : PLAYNOW Thanks\r\n\r\nPL0T\r\nFour young men make a risky investment together that puts them in trouble with the mob.\r\n\r\nCAST\r\nDirector: Jackie Earle Haley\r\nWriter: Robert Lowell\r\nStars: Dan Stevens, John Travolta, Jackie Earle Haley\r\n\r\nSCREENS\r\n[img]http://i.imgur.com/o21cgLQ.png[/img]\r\n[img]http://i.imgur.com/Kq4kH8Z.png[/img]\r\n[img]http://i.imgur.com/2KciVTT.png[/img]\r\n[img]http://i.imgur.com/S2GQTth.png[/img]\r\n[img]http://i.imgur.com/mAhiKDw.png[/img]\r\n[img]http://i.imgur.com/1CDMnTC.png[/img]\r\n\r\nTRAiLER\r\n\r\nGREETZ\r\n\r\n\r\nHIVE-CM8, Blackjesus, M0RPH, M00SE, MiLLENiUM,\r\n\r\nMANiX, TiTAN, Anonymous, TuX, \r\n\r\nACAB, KingStoner, FooKas, 4PlayHD, \r\n\r\nSoZE, GodFather, Cld.... \r\n\r\nKeep up the good work guyz","torrent":{"xt":"urn:btih:4742bed162d4dd3aa2f20abd82d06a175856faef","amp;dn":"Criminal.Activities.2015.WEBRiP.XViD.AC3.5.1.ReLeNTLesS","amp;tr":["udp%3A%2F%2Ftracker.leechers-paradise.org%3A6969","udp%3A%2F%2Fzer0day.ch%3A1337","udp%3A%2F%2Fopen.demonii.com%3A1337","udp%3A%2F%2Ftracker.coppersurfer.tk%3A6969","udp%3A%2F%2Fexodus.desync.com%3A6969"],"infoHash":"4742bed162d4dd3aa2f20abd82d06a175856faef","infoHashBuffer":{"type":"Buffer","data":[71,66,190,209,98,212,221,58,162,242,10,189,130,208,106,23,88,86,250,239]},"announce":[],"urlList":[]}}